<svg xmlns="http://www.w3.org/2000/svg" xmlns:xlink="http://www.w3.org/1999/xlink" xmlns:serif="http://www.serif.com/" viewBox="0 0 100 126.25" version="1.1" xml:space="preserve" style="" x="0px" y="0px" fill-rule="evenodd" clip-rule="evenodd" stroke-linejoin="round" stroke-miterlimit="2"><g transform="matrix(1,0,0,1,0,-121)"><g transform="matrix(0.0881944,0,0,0.15119,0,121.65)"><rect x="0" y="0" width="1133.86" height="661.417" style="" fill="none"/><g transform="matrix(14.1376,0,0,8.24692,-4372.43,-3288.64)"><path d="M347.588,455.519C347.324,455.507 347.066,455.603 346.874,455.785C346.681,455.969 346.572,456.223 346.572,456.489C346.572,456.489 346.572,461.244 346.572,461.244C346.572,461.416 346.449,461.563 346.28,461.594C346.278,461.594 346.276,461.595 346.273,461.595C343.355,462.195 341.16,464.783 341.16,467.88C341.16,471.427 344.04,474.308 347.588,474.308C347.588,474.308 347.588,474.308 347.588,474.308C351.136,474.308 354.016,471.427 354.016,467.88C354.016,464.783 351.822,462.195 348.906,461.587C348.903,461.586 348.901,461.586 348.898,461.585C348.733,461.555 348.614,461.411 348.614,461.244C348.614,461.243 348.614,461.242 348.614,461.241C348.604,460.139 348.604,457.69 348.604,456.489L348.604,456.489C348.604,456.223 348.495,455.969 348.303,455.785C348.111,455.603 347.853,455.507 347.588,455.519ZM347.588,456.144L347.588,456.145L347.589,456.144L347.617,456.144C347.711,456.139 347.803,456.173 347.872,456.238C347.941,456.303 347.979,456.394 347.979,456.489C347.979,456.489 347.979,456.489 347.979,456.489C347.979,457.691 347.979,460.143 347.989,461.246C347.989,461.711 348.321,462.111 348.778,462.199C351.411,462.748 353.391,465.085 353.391,467.88C353.391,471.082 350.791,473.683 347.588,473.683L347.588,473.683C344.385,473.683 341.785,471.082 341.785,467.88C341.785,465.085 343.765,462.749 346.399,462.207C346.858,462.123 347.197,461.718 347.197,461.244L347.197,456.489C347.197,456.394 347.236,456.303 347.304,456.238C347.373,456.173 347.465,456.139 347.56,456.144L347.588,456.144ZM347.588,472.224C349.986,472.224 351.933,470.278 351.933,467.88C351.933,465.482 349.986,463.535 347.588,463.535C345.19,463.535 343.243,465.482 343.243,467.88C343.243,470.278 345.19,472.224 347.588,472.224L347.588,472.224ZM347.588,471.599L347.588,471.599C345.535,471.599 343.868,469.933 343.868,467.88C343.868,465.827 345.535,464.16 347.588,464.16C349.641,464.16 351.308,465.827 351.308,467.88C351.308,469.933 349.641,471.599 347.588,471.599ZM359.021,450.776L359.008,450.79C358.816,450.968 358.704,451.216 358.698,451.478C358.691,451.743 358.794,451.999 358.981,452.187L362.346,455.552C362.468,455.673 362.485,455.865 362.387,456.006C362.386,456.008 362.385,456.01 362.383,456.012C360.744,458.499 361.022,461.881 363.212,464.071C365.72,466.58 369.794,466.58 372.302,464.071L372.302,464.071C374.811,461.562 374.811,457.489 372.302,454.98C370.113,452.791 366.732,452.512 364.239,454.144C364.237,454.146 364.235,454.147 364.233,454.148C364.095,454.244 363.908,454.227 363.79,454.108C363.789,454.108 363.789,454.107 363.788,454.106C363.001,453.333 361.268,451.599 360.419,450.75C360.419,450.75 360.419,450.75 360.419,450.75C360.231,450.562 359.975,450.46 359.709,450.466C359.447,450.472 359.199,450.584 359.021,450.776ZM336.169,450.79L336.155,450.776C335.977,450.584 335.729,450.472 335.467,450.466C335.202,450.46 334.946,450.562 334.758,450.75L331.393,454.115C331.272,454.236 331.081,454.253 330.939,454.156C330.937,454.154 330.935,454.153 330.934,454.152C328.446,452.512 325.064,452.79 322.874,454.98C320.366,457.489 320.366,461.562 322.874,464.071L323.095,464.162C323.095,464.162 322.874,464.071 322.874,464.071C322.874,464.071 323.095,464.162 323.095,464.162C323.012,464.162 322.933,464.129 322.874,464.071C325.383,466.58 329.456,466.58 331.965,464.071C334.154,461.881 334.433,458.5 332.801,456.007C332.799,456.005 332.798,456.003 332.797,456.001C332.701,455.863 332.718,455.677 332.837,455.558C332.838,455.558 332.838,455.557 332.839,455.557C333.612,454.77 335.346,453.036 336.195,452.187C336.195,452.187 336.195,452.187 336.195,452.187C336.383,451.999 336.485,451.743 336.479,451.478C336.473,451.216 336.361,450.968 336.169,450.79ZM371.86,463.629L371.86,463.629C371.834,463.655 371.813,463.686 371.798,463.718C371.81,463.689 371.831,463.659 371.86,463.629L371.86,463.629C369.596,465.894 365.918,465.894 363.653,463.629C361.677,461.653 361.425,458.601 362.905,456.356C363.17,455.971 363.123,455.445 362.788,455.11L359.423,451.745C359.357,451.678 359.32,451.587 359.322,451.493C359.325,451.398 359.365,451.309 359.435,451.245L359.425,451.249L359.466,451.215L359.477,451.204C359.54,451.134 359.63,451.093 359.724,451.091C359.819,451.089 359.91,451.125 359.977,451.192L359.977,451.192C360.827,452.042 362.562,453.778 363.35,454.552C363.678,454.88 364.196,454.929 364.582,454.667C366.832,453.194 369.884,453.446 371.86,455.422C374.125,457.687 374.125,461.364 371.86,463.629ZM335.951,451.327C335.874,451.327 335.799,451.298 335.741,451.245C335.811,451.309 335.852,451.398 335.854,451.493C335.856,451.587 335.82,451.678 335.753,451.745C334.903,452.595 333.167,454.331 332.393,455.118C332.065,455.447 332.016,455.964 332.278,456.35C333.751,458.6 333.499,461.653 331.523,463.629C329.258,465.894 325.581,465.894 323.316,463.629C323.406,463.718 323.432,463.853 323.384,463.969C323.336,464.086 323.222,464.162 323.095,464.162C323.095,464.162 323.384,463.697 323.316,463.629C323.315,463.628 323.314,463.626 323.312,463.625C321.051,461.364 321.051,457.687 323.316,455.422C325.292,453.446 328.344,453.194 330.59,454.674C330.974,454.939 331.5,454.891 331.835,454.557L335.2,451.192C335.267,451.125 335.358,451.089 335.452,451.091C335.547,451.093 335.636,451.134 335.7,451.204L335.931,451.306C335.931,451.306 335.711,451.215 335.711,451.215C335.711,451.215 335.951,451.327 335.951,451.327ZM372.081,464.162L371.86,463.629C371.928,463.561 372.079,464.153 372.081,464.162ZM324.352,462.603C326.048,464.293 328.798,464.292 330.492,462.598C332.188,460.902 332.188,458.149 330.492,456.453C328.796,454.758 326.043,454.758 324.347,456.453C322.652,458.149 322.652,460.902 324.347,462.597L324.352,462.603ZM370.829,462.598L370.829,462.598C372.525,460.902 372.525,458.149 370.829,456.453C369.134,454.758 366.38,454.758 364.685,456.453C362.989,458.149 362.989,460.902 364.685,462.598C366.38,464.293 369.134,464.293 370.829,462.598L370.829,462.598ZM324.79,462.157L324.774,462.141C323.338,460.689 323.342,458.342 324.789,456.895C326.241,455.443 328.598,455.443 330.05,456.895C331.502,458.347 331.502,460.704 330.05,462.156C328.598,463.607 326.242,463.607 324.79,462.156L324.79,462.157ZM370.387,462.156L370.608,462.689C370.6,462.685 370.127,462.416 370.387,462.156L370.387,462.156C368.936,463.607 366.578,463.607 365.127,462.156C363.675,460.704 363.675,458.347 365.127,456.895C366.578,455.443 368.936,455.443 370.387,456.895C371.839,458.347 371.839,460.704 370.387,462.156ZM324.825,462.199C324.886,462.285 324.899,462.398 324.858,462.497C324.809,462.614 324.695,462.69 324.569,462.69L324.569,462.689C324.727,462.689 324.86,462.57 324.879,462.413C324.888,462.335 324.867,462.26 324.825,462.199ZM324.376,462.623L324.383,462.628C324.416,462.653 324.455,462.671 324.496,462.681C324.519,462.686 324.543,462.689 324.567,462.689L324.569,462.69C324.501,462.69 324.436,462.668 324.383,462.628L324.376,462.623C324.374,462.621 324.371,462.619 324.368,462.617L324.376,462.623ZM370.608,462.689L370.387,462.156C370.454,462.089 370.603,462.669 370.608,462.689ZM324.356,462.606L324.362,462.611L324.356,462.606ZM324.803,462.171L324.807,462.175L324.803,462.171ZM324.658,462.077L324.662,462.079L324.658,462.077ZM347.979,425.744L347.371,425.744C347.275,425.743 347.197,425.666 347.197,425.57C347.197,425.513 347.187,425.459 347.15,425.404C347.104,424.671 346.756,423.986 346.185,423.517C345.57,423.014 344.762,422.812 343.983,422.967C343.982,422.968 343.98,422.968 343.978,422.968C342.021,423.393 340.192,424.164 338.535,425.181C338.532,425.183 338.528,425.185 338.524,425.188C337.855,425.638 337.422,426.365 337.344,427.168C337.266,427.972 337.552,428.768 338.123,429.338L338.239,429.454L337.671,430.022C337.632,429.99 337.587,429.955 337.539,429.919C336.976,429.365 336.193,429.089 335.404,429.166C334.607,429.244 333.887,429.676 333.442,430.341C333.44,430.343 333.439,430.345 333.438,430.346C332.402,431.965 331.639,433.776 331.171,435.705C331.17,435.708 331.169,435.712 331.169,435.716C331.007,436.513 331.212,437.341 331.727,437.971C332.242,438.601 333.012,438.966 333.826,438.966C333.826,438.966 333.975,438.966 333.975,438.966L333.975,439.767C333.915,439.772 333.848,439.78 333.775,439.79C332.991,439.797 332.248,440.152 331.749,440.76C331.245,441.375 331.043,442.183 331.199,442.962C331.199,442.964 331.199,442.965 331.2,442.967C331.624,444.924 332.395,446.753 333.412,448.41C333.414,448.413 333.417,448.417 333.419,448.421C333.87,449.09 334.596,449.523 335.4,449.601C336.203,449.679 336.999,449.393 337.57,448.822L337.686,448.706L338.253,449.274C338.221,449.313 338.187,449.358 338.15,449.406C337.597,449.97 337.32,450.752 337.398,451.541C337.476,452.338 337.907,453.058 338.573,453.504C338.574,453.505 338.576,453.506 338.578,453.507C340.197,454.543 342.008,455.306 343.936,455.774C343.94,455.775 343.944,455.776 343.948,455.776C344.745,455.938 345.573,455.733 346.202,455.218C346.832,454.703 347.197,453.933 347.197,453.119L347.197,453.118C347.197,453.078 347.213,453.041 347.24,453.013C347.268,452.986 347.305,452.97 347.345,452.97L347.998,452.97C348.004,453.03 348.012,453.097 348.022,453.17C348.028,453.954 348.383,454.697 348.992,455.196C349.606,455.7 350.414,455.902 351.193,455.746C351.195,455.746 351.197,455.746 351.198,455.745C353.156,455.321 354.985,454.55 356.641,453.533C356.645,453.531 356.648,453.528 356.652,453.526C357.321,453.076 357.754,452.35 357.832,451.547C357.91,450.744 357.626,449.948 357.056,449.377C357.056,449.377 357.055,449.377 357.055,449.377C357.024,449.346 357.007,449.304 357.007,449.259C357.007,449.215 357.024,449.173 357.055,449.142L357.505,448.692C357.545,448.724 357.589,448.758 357.638,448.795C358.201,449.348 358.984,449.625 359.773,449.547C360.57,449.469 361.29,449.038 361.735,448.372C361.736,448.371 361.737,448.369 361.738,448.367C362.775,446.748 363.538,444.937 364.005,443.009C364.006,443.005 364.007,443.001 364.008,442.998C364.169,442.203 363.966,441.378 363.455,440.749C362.944,440.12 362.177,439.753 361.367,439.748C361.366,439.748 361.366,439.748 361.365,439.748C361.322,439.748 361.28,439.731 361.249,439.7C361.219,439.669 361.202,439.628 361.202,439.585L361.202,439.143C361.202,439.046 361.28,438.967 361.377,438.966C361.381,438.967 361.517,439.016 361.608,438.913C362.315,438.852 362.973,438.508 363.428,437.953C363.931,437.339 364.133,436.531 363.978,435.752C363.977,435.75 363.977,435.748 363.977,435.747C363.552,433.789 362.781,431.96 361.764,430.304C361.762,430.3 361.76,430.297 361.757,430.293C361.307,429.623 360.58,429.19 359.777,429.113C358.973,429.035 358.177,429.321 357.607,429.892L357.491,430.007L357.039,429.556C356.983,429.5 356.983,429.409 357.038,429.353C356.98,429.413 356.9,429.446 356.816,429.446C356.816,429.446 357.143,429.37 357.155,429.166C357.623,428.617 357.85,427.897 357.779,427.172C357.701,426.375 357.27,425.655 356.604,425.21C356.602,425.209 356.6,425.208 356.599,425.207C354.98,424.17 353.169,423.407 351.241,422.94C351.237,422.939 351.233,422.938 351.229,422.937C350.432,422.775 349.604,422.98 348.974,423.495C348.344,424.01 347.979,424.781 347.979,425.594L347.979,425.744ZM356.477,429.066C356.305,429.361 356.345,429.745 356.597,429.998C356.888,430.288 357.27,430.67 357.27,430.67C357.329,430.729 357.408,430.762 357.491,430.762C357.491,430.762 357.602,430.781 357.716,430.666L358.049,430.333C358.487,429.895 359.099,429.675 359.717,429.735C360.33,429.794 360.886,430.123 361.233,430.633C362.214,432.232 362.956,433.992 363.365,435.876C363.483,436.471 363.329,437.088 362.944,437.557C362.559,438.027 361.984,438.299 361.376,438.299C361.304,438.299 361.238,438.323 361.185,438.364C360.835,438.451 360.577,438.767 360.577,439.143L360.577,439.584C360.577,439.794 360.66,439.994 360.807,440.142C360.955,440.29 361.156,440.373 361.365,440.373C361.987,440.377 362.577,440.659 362.97,441.143C363.361,441.624 363.518,442.255 363.398,442.863C362.945,444.724 362.212,446.468 361.214,448.027C360.873,448.536 360.322,448.866 359.712,448.925C359.101,448.985 358.495,448.769 358.061,448.335C358.05,448.324 358.039,448.314 358.026,448.304C357.845,448.171 357.734,448.064 357.713,448.044C357.474,447.811 357.483,448.394 357.489,448.543L357.491,448.577L357.271,448.486C357.242,448.457 357.218,448.423 357.202,448.384C357.154,448.267 357.181,448.133 357.27,448.043C357.27,448.043 356.902,448.411 356.613,448.7C356.465,448.848 356.382,449.05 356.382,449.259C356.382,449.469 356.465,449.671 356.613,449.819C357.051,450.258 357.27,450.869 357.21,451.486C357.151,452.1 356.821,452.655 356.312,453.001C354.713,453.982 352.953,454.725 351.069,455.134C350.474,455.252 349.857,455.097 349.388,454.713C348.919,454.328 348.646,453.752 348.646,453.145C348.646,453.13 348.645,453.115 348.643,453.101C348.609,452.86 348.605,452.691 348.605,452.66L348.604,452.658C348.604,452.485 348.465,452.345 348.292,452.345L347.345,452.345C347.14,452.345 346.943,452.426 346.798,452.571C346.653,452.716 346.572,452.913 346.572,453.118L346.572,453.119C346.572,453.745 346.291,454.338 345.807,454.735C345.325,455.128 344.693,455.287 344.082,455.166C342.221,454.714 340.477,453.98 338.918,452.983C338.409,452.641 338.079,452.09 338.02,451.48C337.96,450.869 338.176,450.264 338.61,449.83C338.621,449.819 338.631,449.807 338.641,449.795C338.775,449.614 338.901,449.482 338.901,449.482L338.9,449.482C338.929,449.453 338.953,449.418 338.97,449.379C339.018,449.262 338.991,449.128 338.902,449.038L337.907,448.043L337.686,448.577L337.461,448.047L337.128,448.38C336.689,448.819 336.077,449.039 335.46,448.979C334.846,448.92 334.291,448.59 333.944,448.081C332.963,446.482 332.22,444.722 331.811,442.837C331.693,442.242 331.848,441.626 332.232,441.157C332.617,440.687 333.193,440.415 333.8,440.415C333.815,440.415 333.83,440.414 333.844,440.412C334.11,440.374 334.287,440.373 334.287,440.373C334.46,440.373 334.6,440.233 334.6,440.061L334.6,438.653L334.287,438.966C334.287,438.966 334.695,438.341 334.282,438.341L333.826,438.341C333.2,438.341 332.607,438.06 332.211,437.575C331.817,437.093 331.658,436.461 331.779,435.851C332.231,433.989 332.965,432.246 333.962,430.686C334.304,430.178 334.855,429.848 335.465,429.788C336.076,429.728 336.681,429.945 337.115,430.379C337.126,430.39 337.138,430.4 337.15,430.409C337.331,430.543 337.443,430.649 337.463,430.669L337.494,430.696L337.495,430.697C337.596,430.777 337.686,430.762 337.686,430.762C337.768,430.762 337.848,430.729 337.907,430.67L338.902,429.675L338.681,429.767C338.681,429.767 339.169,429.5 338.898,429.229L338.565,428.896C338.126,428.458 337.906,427.846 337.966,427.228C338.026,426.615 338.355,426.059 338.864,425.712C340.463,424.731 342.223,423.989 344.108,423.58L344.108,423.58C344.703,423.462 345.319,423.616 345.788,424.001C346.258,424.386 346.53,424.961 346.53,425.569C346.53,425.64 346.554,425.706 346.594,425.758C346.679,426.108 346.994,426.369 347.371,426.369L348.292,426.369C348.292,426.369 348.604,426.345 348.604,426.051L348.604,425.594C348.604,424.968 348.885,424.375 349.37,423.979C349.852,423.585 350.484,423.427 351.094,423.548C352.956,424 354.699,424.733 356.259,425.731C356.768,426.072 357.097,426.624 357.157,427.233C357.217,427.844 357,428.45 356.566,428.884C356.515,428.935 356.485,428.999 356.477,429.066ZM359.278,451.304L359.272,451.305L359.225,451.327L359.284,451.304L359.278,451.304ZM336.234,450.88C336.334,451.113 335.951,451.327 335.951,451.327C336.08,451.327 336.196,451.247 336.243,451.127C336.274,451.045 336.27,450.956 336.234,450.88ZM336.177,450.798L336.18,450.801L336.177,450.798ZM348.226,430.283L348.226,429.089C348.226,428.916 348.086,428.776 347.914,428.776L346.506,428.776C346.334,428.776 346.194,428.916 346.194,429.089L346.194,430.522C342.186,431.463 339.198,435.064 339.198,439.357C339.198,443.65 342.186,447.251 346.194,448.191C346.194,448.191 346.194,449.625 346.194,449.625C346.194,449.797 346.334,449.937 346.506,449.937L347.914,449.937C348.086,449.937 348.226,449.797 348.226,449.625L348.226,448.431L348.319,448.431C348.319,448.431 348.319,449.625 348.319,449.625C348.319,449.797 348.459,449.937 348.631,449.937L350.039,449.937C350.211,449.937 350.351,449.797 350.351,449.625L350.351,448.191C351,448.039 351.623,447.817 352.21,447.533C352.318,447.481 352.387,447.372 352.387,447.252L352.387,444.847C352.387,444.73 352.322,444.624 352.219,444.57C352.116,444.516 351.992,444.524 351.896,444.59C351.424,444.918 350.904,445.184 350.351,445.375C350.351,445.375 350.351,445.235 350.351,445.235C350.351,445.063 350.211,444.923 350.039,444.923L348.631,444.923C348.459,444.923 348.319,445.063 348.319,445.235L348.319,445.723L348.226,445.723C348.226,445.723 348.226,445.235 348.226,445.235C348.226,445.063 348.086,444.923 347.914,444.923L346.506,444.923C346.334,444.923 346.194,445.063 346.194,445.235L346.194,445.375C343.7,444.513 341.907,442.143 341.907,439.357C341.907,436.571 343.7,434.2 346.194,433.338C346.194,433.338 346.194,433.478 346.194,433.478C346.194,433.651 346.334,433.791 346.506,433.791L347.914,433.791C348.086,433.791 348.226,433.651 348.226,433.478L348.226,432.991L348.319,432.991C348.319,432.991 348.319,433.478 348.319,433.478C348.319,433.651 348.459,433.791 348.631,433.791L350.039,433.791C350.211,433.791 350.351,433.651 350.351,433.478L350.351,433.338C350.905,433.53 351.424,433.796 351.896,434.124C351.992,434.19 352.116,434.198 352.219,434.144C352.322,434.09 352.387,433.983 352.387,433.867L352.387,431.462C352.387,431.342 352.318,431.233 352.21,431.181C351.623,430.897 351,430.675 350.351,430.522C350.351,430.522 350.351,429.089 350.351,429.089C350.351,428.916 350.211,428.776 350.039,428.776L348.631,428.776C348.459,428.776 348.319,428.916 348.319,429.089L348.319,430.283L348.226,430.283ZM347.601,430.602C347.601,430.687 347.636,430.769 347.697,430.828C347.759,430.887 347.841,430.918 347.926,430.914C348.042,430.91 348.157,430.908 348.272,430.908C348.388,430.908 348.504,430.91 348.619,430.914C348.704,430.918 348.786,430.887 348.848,430.828C348.909,430.769 348.944,430.687 348.944,430.602L348.944,429.401C348.944,429.401 349.726,429.401 349.726,429.401C349.726,429.401 349.726,430.773 349.726,430.773C349.726,430.922 349.83,431.05 349.976,431.08C350.599,431.207 351.197,431.404 351.762,431.66C351.762,431.661 351.762,433.299 351.762,433.299C351.252,433.004 350.702,432.772 350.121,432.613C350.027,432.588 349.927,432.607 349.849,432.666C349.772,432.725 349.726,432.817 349.726,432.915L349.726,433.166C349.726,433.166 348.944,433.166 348.944,433.166C348.944,433.166 348.944,432.688 348.944,432.688C348.944,432.522 348.814,432.385 348.648,432.376C348.523,432.369 348.398,432.366 348.272,432.366C348.147,432.366 348.022,432.369 347.897,432.376C347.731,432.385 347.601,432.522 347.601,432.688L347.601,433.166C347.601,433.166 346.819,433.166 346.819,433.166C346.819,433.166 346.819,432.915 346.819,432.915C346.819,432.817 346.773,432.725 346.696,432.666C346.618,432.607 346.518,432.588 346.424,432.613C343.461,433.425 341.282,436.138 341.282,439.357C341.282,442.575 343.461,445.289 346.424,446.1C346.518,446.126 346.618,446.106 346.696,446.047C346.773,445.988 346.819,445.896 346.819,445.799L346.819,445.548C346.819,445.548 347.601,445.548 347.601,445.548C347.601,445.548 347.601,446.026 347.601,446.026C347.601,446.192 347.731,446.329 347.897,446.338C348.022,446.344 348.147,446.348 348.272,446.348C348.398,446.348 348.523,446.344 348.648,446.338C348.814,446.329 348.944,446.192 348.944,446.026L348.944,445.548C348.944,445.548 349.726,445.548 349.726,445.548C349.726,445.548 349.726,445.799 349.726,445.799C349.726,445.896 349.772,445.988 349.849,446.047C349.927,446.106 350.027,446.126 350.121,446.1C350.702,445.941 351.252,445.709 351.762,445.415C351.762,445.415 351.762,447.053 351.762,447.053C351.197,447.31 350.599,447.506 349.976,447.634C349.83,447.664 349.726,447.792 349.726,447.94L349.726,449.312C349.726,449.312 348.944,449.312 348.944,449.312C348.944,449.312 348.944,448.111 348.944,448.111C348.944,448.026 348.909,447.945 348.848,447.886C348.786,447.827 348.704,447.796 348.619,447.799C348.504,447.804 348.388,447.806 348.272,447.806C348.157,447.806 348.042,447.804 347.926,447.799C347.841,447.796 347.759,447.827 347.697,447.886C347.636,447.945 347.601,448.026 347.601,448.111L347.601,449.312C347.601,449.312 346.819,449.312 346.819,449.312C346.819,449.312 346.819,447.94 346.819,447.94C346.819,447.792 346.714,447.664 346.569,447.634C342.721,446.845 339.823,443.437 339.823,439.357C339.823,435.277 342.721,431.868 346.569,431.08C346.714,431.05 346.819,430.922 346.819,430.773L346.819,429.401C346.819,429.401 347.601,429.401 347.601,429.401C347.601,429.401 347.601,430.602 347.601,430.602ZM331.426,439.357C331.438,439.092 331.342,438.834 331.16,438.642C330.977,438.45 330.722,438.341 330.456,438.341C330.456,438.341 325.701,438.341 325.701,438.341C325.529,438.34 325.382,438.218 325.351,438.048C325.351,438.046 325.35,438.044 325.35,438.042C324.75,435.123 322.162,432.929 319.065,432.929C315.518,432.929 312.637,435.809 312.637,439.357C312.637,439.357 312.637,439.357 312.637,439.357C312.637,442.905 315.518,445.785 319.065,445.785C322.162,445.785 324.75,443.591 325.358,440.674C325.359,440.672 325.359,440.669 325.36,440.667C325.39,440.502 325.534,440.382 325.701,440.382C325.702,440.382 325.703,440.382 325.704,440.382C326.806,440.373 329.255,440.373 330.456,440.373L330.456,440.373C330.722,440.373 330.977,440.264 331.16,440.071C331.342,439.879 331.438,439.621 331.426,439.357ZM363.751,439.357C363.738,439.621 363.834,439.879 364.017,440.071C364.2,440.264 364.454,440.373 364.72,440.373C364.72,440.373 369.475,440.373 369.475,440.373C369.647,440.373 369.794,440.496 369.825,440.665C369.826,440.667 369.826,440.67 369.827,440.672C370.426,443.59 373.014,445.785 376.111,445.785C379.659,445.785 382.539,442.905 382.539,439.357C382.539,439.357 382.539,439.357 382.539,439.357C382.539,435.809 379.659,432.929 376.111,432.929C373.015,432.929 370.427,435.123 369.818,438.039C369.818,438.042 369.817,438.044 369.817,438.047C369.787,438.212 369.643,438.331 369.475,438.331C369.474,438.331 369.474,438.331 369.473,438.331C368.37,438.341 365.921,438.341 364.72,438.341L364.72,438.341C364.454,438.341 364.2,438.45 364.017,438.642C363.834,438.834 363.738,439.092 363.751,439.357ZM330.456,439.748C330.456,439.748 330.456,439.748 330.456,439.748C329.254,439.748 326.802,439.748 325.699,439.757C325.234,439.757 324.834,440.089 324.746,440.547C324.197,443.18 321.86,445.16 319.065,445.16C315.863,445.16 313.262,442.56 313.262,439.357L313.262,439.357C313.262,436.154 315.863,433.554 319.065,433.554C321.86,433.554 324.196,435.533 324.738,438.168C324.822,438.627 325.227,438.965 325.701,438.966L330.456,438.966C330.551,438.966 330.642,439.004 330.707,439.073C330.772,439.142 330.806,439.234 330.801,439.329L331.114,439.657C331.114,439.657 330.801,439.345 330.801,439.345C330.801,439.345 330.801,439.369 330.801,439.369C330.801,439.369 331.114,439.682 331.114,439.682C330.947,439.682 330.81,439.551 330.801,439.385C330.806,439.48 330.772,439.572 330.707,439.641C330.642,439.709 330.551,439.748 330.456,439.748ZM364.375,439.374C364.376,439.359 364.376,439.344 364.375,439.329C364.37,439.234 364.405,439.142 364.47,439.073C364.535,439.004 364.625,438.966 364.72,438.966C364.72,438.966 364.72,438.966 364.72,438.966C365.923,438.966 368.374,438.966 369.478,438.956C369.942,438.956 370.343,438.625 370.43,438.167C370.98,435.534 373.316,433.554 376.111,433.554C379.314,433.554 381.914,436.154 381.914,439.357L381.914,439.357C381.914,442.56 379.314,445.16 376.111,445.16C373.316,445.16 370.98,443.18 370.439,440.546C370.355,440.087 369.949,439.748 369.476,439.748L364.72,439.748C364.625,439.748 364.535,439.709 364.47,439.641C364.405,439.572 364.37,439.48 364.375,439.385C364.375,439.385 364.376,439.373 364.376,439.373L364.375,439.374ZM314.721,439.357C314.721,441.755 316.668,443.702 319.065,443.702C321.463,443.702 323.41,441.755 323.41,439.357C323.41,436.959 321.463,435.012 319.065,435.012C316.668,435.012 314.721,436.959 314.721,439.357L314.721,439.357ZM380.456,439.357C380.456,436.959 378.509,435.012 376.111,435.012C373.713,435.012 371.766,436.959 371.766,439.357C371.766,441.755 373.713,443.702 376.111,443.702C378.509,443.702 380.456,441.755 380.456,439.357L380.456,439.357ZM315.346,439.357L315.346,439.357C315.346,437.304 317.012,435.637 319.065,435.637C321.119,435.637 322.785,437.304 322.785,439.357C322.785,441.41 321.119,443.077 319.065,443.077C317.012,443.077 315.346,441.41 315.346,439.357ZM379.831,439.357L379.831,439.357C379.831,441.41 378.164,443.077 376.111,443.077C374.058,443.077 372.391,441.41 372.391,439.357C372.391,437.304 374.058,435.637 376.111,435.637C378.164,435.637 379.831,437.304 379.831,439.357ZM331.426,439.36L331.31,439.47L331.114,439.682C331.199,439.682 331.281,439.647 331.34,439.585C331.398,439.524 331.429,439.442 331.426,439.357L331.426,439.36ZM361.064,438.653L361.376,438.966C361.204,438.966 361.064,438.826 361.064,438.654L361.064,438.653ZM356.587,429.346C356.593,429.353 356.6,429.36 356.608,429.367C356.615,429.373 356.623,429.379 356.63,429.385L356.587,429.346ZM322.874,414.643L322.874,414.643C322.848,414.669 322.827,414.699 322.812,414.732C322.716,414.961 323.088,415.172 323.095,415.176L323.095,415.176C322.969,415.176 322.855,415.1 322.806,414.983C322.772,414.901 322.776,414.81 322.812,414.732C322.824,414.702 322.845,414.672 322.874,414.643L322.874,414.643C320.366,417.151 320.366,421.225 322.874,423.734C325.064,425.923 328.445,426.201 330.938,424.569C330.94,424.568 330.942,424.567 330.944,424.565C331.082,424.47 331.268,424.487 331.387,424.605C331.387,424.606 331.388,424.607 331.388,424.607C332.175,425.381 333.909,427.114 334.758,427.964C334.758,427.964 334.758,427.964 334.758,427.964C334.946,428.151 335.202,428.254 335.467,428.248C335.732,428.241 335.983,428.127 336.162,427.93C336.358,427.752 336.473,427.501 336.479,427.236C336.485,426.97 336.383,426.714 336.195,426.526L332.831,423.162C332.709,423.04 332.692,422.849 332.789,422.708C332.791,422.706 332.792,422.704 332.793,422.702C334.433,420.214 334.155,416.832 331.965,414.643C329.456,412.134 325.383,412.134 322.874,414.643ZM359.015,427.93C359.193,428.127 359.444,428.241 359.709,428.248C359.975,428.254 360.231,428.151 360.419,427.964L363.783,424.599C363.905,424.478 364.096,424.46 364.238,424.558C364.239,424.559 364.241,424.56 364.243,424.562C366.731,426.201 370.113,425.923 372.302,423.734C374.811,421.225 374.811,417.151 372.302,414.643C372.302,414.643 372.302,414.643 372.302,414.643C369.794,412.134 365.72,412.134 363.212,414.643C361.022,416.832 360.744,420.213 362.376,422.706C362.377,422.708 362.378,422.71 362.38,422.712C362.475,422.85 362.458,423.037 362.34,423.155C362.339,423.156 362.338,423.156 362.338,423.157C361.564,423.944 359.831,425.677 358.981,426.526C358.981,426.526 358.981,426.526 358.981,426.526C358.794,426.714 358.691,426.97 358.698,427.236C358.704,427.501 358.818,427.752 359.015,427.93ZM359.245,428.032L359.199,428.011L359.197,428.011L359.245,428.032ZM335.2,427.522C334.35,426.672 332.614,424.936 331.827,424.162C331.498,423.833 330.981,423.785 330.595,424.047C328.345,425.52 325.293,425.268 323.316,423.292C321.051,421.027 321.051,417.349 323.316,415.085C323.258,415.143 323.178,415.176 323.095,415.176C323.095,415.176 323.316,415.085 323.316,415.085C323.316,415.085 323.095,415.176 323.095,415.176L323.316,415.085C325.581,412.82 329.258,412.82 331.523,415.085C333.499,417.061 333.751,420.113 332.271,422.358C332.006,422.742 332.054,423.268 332.388,423.603L335.753,426.968C335.82,427.035 335.856,427.126 335.854,427.221C335.852,427.315 335.811,427.405 335.741,427.468L335.951,428.012C335.951,428.012 335.73,427.479 335.73,427.479C335.73,427.479 335.711,427.498 335.711,427.498C335.711,427.498 335.931,428.032 335.931,428.032C335.807,428.032 335.695,427.959 335.645,427.846C335.595,427.733 335.617,427.601 335.7,427.51C335.636,427.58 335.547,427.62 335.452,427.623C335.358,427.625 335.267,427.588 335.2,427.522L335.2,427.522ZM336.162,427.931L335.931,428.032C336.019,428.032 336.103,427.995 336.162,427.931L336.162,427.931ZM359.447,427.479L359.435,427.468C359.365,427.405 359.325,427.315 359.322,427.221C359.32,427.126 359.357,427.035 359.423,426.968L359.423,426.968C360.274,426.118 362.009,424.383 362.783,423.595C363.112,423.267 363.16,422.749 362.898,422.363C361.425,420.113 361.677,417.061 363.653,415.085C365.918,412.82 369.596,412.82 371.86,415.085L371.86,415.085C374.125,417.349 374.125,421.027 371.86,423.292C369.884,425.268 366.832,425.52 364.587,424.04C364.203,423.775 363.677,423.822 363.342,424.157L359.977,427.522C359.91,427.588 359.819,427.625 359.724,427.623C359.635,427.621 359.551,427.584 359.489,427.522L359.447,427.479ZM324.319,416.149L324.295,416.184C324.28,416.211 324.272,416.238 324.27,416.265C324.266,416.265 324.263,416.268 324.262,416.274C324.204,416.562 324.53,416.64 324.566,416.647L324.567,416.651C324.44,416.651 324.326,416.575 324.278,416.458C324.24,416.368 324.248,416.266 324.295,416.184L324.315,416.153L324.319,416.149L324.321,416.146C324.328,416.136 324.337,416.127 324.345,416.118C322.652,417.814 322.652,420.565 324.347,422.26C326.043,423.956 328.796,423.956 330.492,422.26C332.188,420.565 332.188,417.811 330.492,416.116C328.796,414.42 326.044,414.42 324.348,416.114L324.348,416.115L324.319,416.149ZM370.829,416.116C369.133,414.42 366.38,414.42 364.685,416.116C362.989,417.811 362.989,420.565 364.685,422.26C366.38,423.956 369.134,423.956 370.829,422.26C372.525,420.565 372.525,417.812 370.829,416.116L370.829,416.116ZM347.588,423.194C347.853,423.207 348.111,423.111 348.303,422.928C348.495,422.745 348.604,422.491 348.604,422.225C348.604,422.225 348.604,417.47 348.604,417.47C348.605,417.298 348.728,417.151 348.897,417.12C348.899,417.119 348.901,417.119 348.903,417.118C351.822,416.519 354.016,413.931 354.016,410.834C354.016,407.286 351.136,404.406 347.588,404.406C347.588,404.406 347.588,404.406 347.588,404.406C344.04,404.406 341.16,407.286 341.16,410.834C341.16,413.93 343.354,416.518 346.271,417.127C346.273,417.127 346.276,417.128 346.278,417.128C346.443,417.158 346.563,417.302 346.563,417.47C346.563,417.471 346.563,417.471 346.563,417.472C346.572,418.575 346.572,421.024 346.572,422.225L346.572,422.225C346.572,422.491 346.681,422.745 346.874,422.928C347.066,423.111 347.324,423.207 347.588,423.194ZM324.571,416.647L324.789,416.557C326.242,415.106 328.598,415.106 330.05,416.558C331.502,418.01 331.502,420.367 330.05,421.818C328.598,423.27 326.241,423.27 324.789,421.818C323.338,420.367 323.338,418.011 324.788,416.559C324.729,416.618 324.649,416.651 324.567,416.651C324.567,416.651 324.789,416.558 324.789,416.558L324.568,416.649L324.571,416.647ZM370.387,416.558L370.387,416.558C371.839,418.01 371.839,420.367 370.387,421.818C368.936,423.27 366.578,423.27 365.127,421.818C363.675,420.367 363.675,418.01 365.127,416.558C366.578,415.106 368.936,415.106 370.387,416.558ZM347.572,422.571L347.572,422.569C347.572,422.569 347.56,422.57 347.56,422.57C347.465,422.575 347.373,422.541 347.304,422.475C347.236,422.41 347.197,422.32 347.197,422.225C347.197,422.225 347.197,422.225 347.197,422.225C347.197,421.022 347.197,418.571 347.188,417.467C347.188,417.003 346.856,416.602 346.398,416.515C343.765,415.965 341.785,413.629 341.785,410.834C341.785,407.631 344.385,405.031 347.588,405.031L347.588,405.031C350.791,405.031 353.391,407.631 353.391,410.834C353.391,413.629 351.412,415.965 348.777,416.506C348.318,416.59 347.98,416.996 347.979,417.469L347.979,422.225C347.979,422.32 347.941,422.41 347.872,422.475C347.803,422.541 347.711,422.575 347.617,422.57C347.601,422.569 347.586,422.569 347.572,422.571ZM324.567,416.648L324.565,416.645L324.566,416.647L324.567,416.648L324.568,416.649L324.567,416.648ZM324.561,416.63C324.533,416.524 324.409,416.06 324.348,416.115L324.561,416.63L324.565,416.644L324.567,416.648L324.569,416.648L324.561,416.63ZM347.588,406.489C345.19,406.489 343.243,408.436 343.243,410.834C343.243,413.232 345.19,415.179 347.588,415.179C349.986,415.179 351.933,413.232 351.933,410.834C351.933,408.436 349.986,406.489 347.588,406.489L347.588,406.489ZM323.095,415.176C323.092,415.165 323.054,415.015 323.008,414.876C322.961,414.737 322.908,414.609 322.874,414.643L323.095,415.176ZM347.588,407.114L347.588,407.114C349.641,407.114 351.308,408.781 351.308,410.834C351.308,412.887 349.641,414.554 347.588,414.554C345.535,414.554 343.868,412.887 343.868,410.834C343.868,408.781 345.535,407.114 347.588,407.114Z"/></g></g></g><text x="0" y="116" fill="#000000" font-size="5px" font-weight="bold" font-family="'Helvetica Neue', Helvetica, Arial-Unicode, Arial, Sans-serif">Created by Lukasz</text><text x="0" y="121" fill="#000000" font-size="5px" font-weight="bold" font-family="'Helvetica Neue', Helvetica, Arial-Unicode, Arial, Sans-serif">from the Noun Project</text></svg>